<svg width="331" height="313" viewBox="0 0 331 313" fill="none" xmlns="http://www.w3.org/2000/svg">
  <rect width="331" height="313" rx="50" fill="white" />
  <rect width="331" height="98" fill="#2F74DC" />
  <rect x="53" y="118" width="45" height="45" rx="11" fill="#E9E9E9" />
  <rect x="113" y="118" width="45" height="45" rx="11" fill="#E9E9E9" />
  <rect x="173" y="118" width="45" height="45" rx="11" fill="#E9E9E9" />
  <rect x="233" y="118" width="45" height="45" rx="11" fill="#E9E9E9" />
  <rect x="53" y="178" width="45" height="45" rx="11" fill="#E9E9E9" />
  <rect x="113" y="178" width="45" height="45" rx="11" fill="#2F74DC" />
  <rect x="173" y="178" width="45" height="45" rx="11" fill="#E9E9E9" />
  <rect x="233" y="178" width="45" height="45" rx="11" fill="#E9E9E9" />
  <rect x="53" y="238" width="45" height="45" rx="11" fill="#E9E9E9" />
  <rect x="113" y="238" width="45" height="45" rx="11" fill="#E9E9E9" />
  <rect x="173" y="238" width="45" height="45" rx="11" fill="#E9E9E9" />
  <rect x="233" y="238" width="45" height="45" rx="11" fill="#E9E9E9" />
</svg>